<?xml version="1.0" encoding="utf-8"?>
<svg version="1.1" xmlns:xlink="http://www.w3.org/1999/xlink" width="19px" height="17px" xmlns="http://www.w3.org/2000/svg">
  <defs>
    <pattern id="BGPattern" patternUnits="userSpaceOnUse" alignment="0 0" imageRepeat="None" />
    <mask fill="white" id="Clip22">
      <path d="M 3.970703125 4.75106534090909  C 4.0378534226190474 4.827533143939394  4.071428571428571 4.918087121212119  4.071428571428571 5.022727272727272  L 4.071428571428571 11.977272727272728  C 4.071428571428571 12.081912878787877  4.0378534226190474 12.172466856060602  3.970703125 12.248934659090908  C 3.9035528273809526 12.325402462121213  3.824032738095238 12.363636363636363  3.732142857142857 12.363636363636363  C 3.633184523809524 12.363636363636363  3.551897321428571 12.327414772727272  3.48828125 12.254971590909092  L 0.4347098214285714 8.777698863636363  C 0.37109375 8.705255681818182  0.33928571428571425 8.612689393939393  0.33928571428571425 8.5  C 0.33928571428571425 8.387310606060606  0.37109375 8.294744318181818  0.4347098214285714 8.222301136363637  L 3.48828125 4.74502840909091  C 3.551897321428571 4.672585227272728  3.633184523809524 4.636363636363636  3.732142857142857 4.636363636363636  C 3.824032738095238 4.636363636363636  3.9035528273809526 4.674597537878787  3.970703125 4.75106534090909  Z M 18.899274553571427 14.023792613636363  C 18.966424851190478 14.100260416666666  19 14.190814393939393  19 14.295454545454547  L 19 16.613636363636363  C 19 16.718276515151516  18.966424851190478 16.808830492424242  18.899274553571427 16.885298295454547  C 18.832124255952383 16.961766098484848  18.75260416666667 17  18.660714285714285 17  L 0.33928571428571425 17  C 0.24739583333333334 17  0.16787574404761904 16.961766098484848  0.10072544642857144 16.885298295454547  C 0.03357514880952381 16.808830492424242  0 16.718276515151516  0 16.613636363636363  L 0 14.295454545454547  C 0 14.190814393939393  0.03357514880952381 14.100260416666666  0.10072544642857144 14.023792613636363  C 0.16787574404761904 13.947324810606062  0.24739583333333334 13.909090909090908  0.33928571428571425 14  L 18.660714285714285 14  C 18.75260416666667 13.909090909090908  18.832124255952383 13.947324810606062  18.899274553571427 14.023792613636363  Z M 18.899274553571427 9.387428977272728  C 18.966424851190478 9.46389678030303  19 9.554450757575758  19 9.659090909090908  L 19 11.977272727272728  C 19 12.081912878787877  18.966424851190478 12.172466856060602  18.899274553571427 12.248934659090908  C 18.832124255952383 12.325402462121213  18.75260416666667 12.363636363636363  18.660714285714285 12.363636363636363  L 7.125 12.363636363636363  C 7.0331101190476195 12.363636363636363  6.953590029761905 12.325402462121213  6.886439732142858 12.248934659090908  C 6.81928943452381 12.172466856060602  6.785714285714286 12.081912878787877  6.785714285714286 11.977272727272728  L 6.785714285714286 9.659090909090908  C 6.785714285714286 9.554450757575758  6.81928943452381 9.46389678030303  6.886439732142858 9.387428977272728  C 6.953590029761905 9.310961174242422  7.0331101190476195 9.272727272727272  7.125 9  L 18.660714285714285 9  C 18.75260416666667 9.272727272727272  18.832124255952383 9.310961174242422  18.899274553571427 9.387428977272728  Z M 18.899274553571427 4.75106534090909  C 18.966424851190478 4.827533143939394  19 4.918087121212119  19 5.022727272727272  L 19 7.34090909090909  C 19 7.445549242424242  18.966424851190478 7.536103219696969  18.899274553571427 7.612571022727272  C 18.832124255952383 7.689038825757575  18.75260416666667 7.727272727272728  18.660714285714285 8  L 7.125 8  C 7.0331101190476195 7.727272727272728  6.953590029761905 7.689038825757575  6.886439732142858 7.612571022727272  C 6.81928943452381 7.536103219696969  6.785714285714286 7.445549242424242  6.785714285714286 7.34090909090909  L 6.785714285714286 5.022727272727272  C 6.785714285714286 4.918087121212119  6.81928943452381 4.827533143939394  6.886439732142858 4.75106534090909  C 6.953590029761905 4.674597537878787  7.0331101190476195 4.636363636363636  7.125 4.636363636363636  L 18.660714285714285 4.636363636363636  C 18.75260416666667 4.636363636363636  18.832124255952383 4.674597537878787  18.899274553571427 4.75106534090909  Z M 18.899274553571427 0.11470170454545403  C 18.966424851190478 0.19116950757575735  19 0.2817234848484834  19 0.386363636363636  L 19 2.704545454545454  C 19 2.8091856060606046  18.966424851190478 2.899739583333331  18.899274553571427 2.976207386363636  C 18.832124255952383 3.0526751893939394  18.75260416666667 3.09090909090909  18.660714285714285 3  L 0.33928571428571425 3  C 0.24739583333333334 3.09090909090909  0.16787574404761904 3.0526751893939394  0.10072544642857144 2.976207386363636  C 0.03357514880952381 2.899739583333331  0 2.8091856060606046  0 2.704545454545454  L 0 0.386363636363636  C 0 0.2817234848484834  0.03357514880952381 0.19116950757575735  0.10072544642857144 0.11470170454545403  C 0.16787574404761904 0.03823390151514883  0.24739583333333334 0  0.33928571428571425 0  L 18.660714285714285 0  C 18.75260416666667 0  18.832124255952383 0.03823390151514883  18.899274553571427 0.11470170454545403  Z " fill-rule="evenodd" />
    </mask>
  </defs>
  <g transform="matrix(1 0 0 1 -216 -73 )">
    <path d="M 3.970703125 4.75106534090909  C 4.0378534226190474 4.827533143939394  4.071428571428571 4.918087121212119  4.071428571428571 5.022727272727272  L 4.071428571428571 11.977272727272728  C 4.071428571428571 12.081912878787877  4.0378534226190474 12.172466856060602  3.970703125 12.248934659090908  C 3.9035528273809526 12.325402462121213  3.824032738095238 12.363636363636363  3.732142857142857 12.363636363636363  C 3.633184523809524 12.363636363636363  3.551897321428571 12.327414772727272  3.48828125 12.254971590909092  L 0.4347098214285714 8.777698863636363  C 0.37109375 8.705255681818182  0.33928571428571425 8.612689393939393  0.33928571428571425 8.5  C 0.33928571428571425 8.387310606060606  0.37109375 8.294744318181818  0.4347098214285714 8.222301136363637  L 3.48828125 4.74502840909091  C 3.551897321428571 4.672585227272728  3.633184523809524 4.636363636363636  3.732142857142857 4.636363636363636  C 3.824032738095238 4.636363636363636  3.9035528273809526 4.674597537878787  3.970703125 4.75106534090909  Z M 18.899274553571427 14.023792613636363  C 18.966424851190478 14.100260416666666  19 14.190814393939393  19 14.295454545454547  L 19 16.613636363636363  C 19 16.718276515151516  18.966424851190478 16.808830492424242  18.899274553571427 16.885298295454547  C 18.832124255952383 16.961766098484848  18.75260416666667 17  18.660714285714285 17  L 0.33928571428571425 17  C 0.24739583333333334 17  0.16787574404761904 16.961766098484848  0.10072544642857144 16.885298295454547  C 0.03357514880952381 16.808830492424242  0 16.718276515151516  0 16.613636363636363  L 0 14.295454545454547  C 0 14.190814393939393  0.03357514880952381 14.100260416666666  0.10072544642857144 14.023792613636363  C 0.16787574404761904 13.947324810606062  0.24739583333333334 13.909090909090908  0.33928571428571425 14  L 18.660714285714285 14  C 18.75260416666667 13.909090909090908  18.832124255952383 13.947324810606062  18.899274553571427 14.023792613636363  Z M 18.899274553571427 9.387428977272728  C 18.966424851190478 9.46389678030303  19 9.554450757575758  19 9.659090909090908  L 19 11.977272727272728  C 19 12.081912878787877  18.966424851190478 12.172466856060602  18.899274553571427 12.248934659090908  C 18.832124255952383 12.325402462121213  18.75260416666667 12.363636363636363  18.660714285714285 12.363636363636363  L 7.125 12.363636363636363  C 7.0331101190476195 12.363636363636363  6.953590029761905 12.325402462121213  6.886439732142858 12.248934659090908  C 6.81928943452381 12.172466856060602  6.785714285714286 12.081912878787877  6.785714285714286 11.977272727272728  L 6.785714285714286 9.659090909090908  C 6.785714285714286 9.554450757575758  6.81928943452381 9.46389678030303  6.886439732142858 9.387428977272728  C 6.953590029761905 9.310961174242422  7.0331101190476195 9.272727272727272  7.125 9  L 18.660714285714285 9  C 18.75260416666667 9.272727272727272  18.832124255952383 9.310961174242422  18.899274553571427 9.387428977272728  Z M 18.899274553571427 4.75106534090909  C 18.966424851190478 4.827533143939394  19 4.918087121212119  19 5.022727272727272  L 19 7.34090909090909  C 19 7.445549242424242  18.966424851190478 7.536103219696969  18.899274553571427 7.612571022727272  C 18.832124255952383 7.689038825757575  18.75260416666667 7.727272727272728  18.660714285714285 8  L 7.125 8  C 7.0331101190476195 7.727272727272728  6.953590029761905 7.689038825757575  6.886439732142858 7.612571022727272  C 6.81928943452381 7.536103219696969  6.785714285714286 7.445549242424242  6.785714285714286 7.34090909090909  L 6.785714285714286 5.022727272727272  C 6.785714285714286 4.918087121212119  6.81928943452381 4.827533143939394  6.886439732142858 4.75106534090909  C 6.953590029761905 4.674597537878787  7.0331101190476195 4.636363636363636  7.125 4.636363636363636  L 18.660714285714285 4.636363636363636  C 18.75260416666667 4.636363636363636  18.832124255952383 4.674597537878787  18.899274553571427 4.75106534090909  Z M 18.899274553571427 0.11470170454545403  C 18.966424851190478 0.19116950757575735  19 0.2817234848484834  19 0.386363636363636  L 19 2.704545454545454  C 19 2.8091856060606046  18.966424851190478 2.899739583333331  18.899274553571427 2.976207386363636  C 18.832124255952383 3.0526751893939394  18.75260416666667 3.09090909090909  18.660714285714285 3  L 0.33928571428571425 3  C 0.24739583333333334 3.09090909090909  0.16787574404761904 3.0526751893939394  0.10072544642857144 2.976207386363636  C 0.03357514880952381 2.899739583333331  0 2.8091856060606046  0 2.704545454545454  L 0 0.386363636363636  C 0 0.2817234848484834  0.03357514880952381 0.19116950757575735  0.10072544642857144 0.11470170454545403  C 0.16787574404761904 0.03823390151514883  0.24739583333333334 0  0.33928571428571425 0  L 18.660714285714285 0  C 18.75260416666667 0  18.832124255952383 0.03823390151514883  18.899274553571427 0.11470170454545403  Z " fill-rule="nonzero" fill="rgba(215, 215, 215, 1)" stroke="none" transform="matrix(1 0 0 1 216 73 )" class="fill" />
    <path d="M 3.970703125 4.75106534090909  C 4.0378534226190474 4.827533143939394  4.071428571428571 4.918087121212119  4.071428571428571 5.022727272727272  L 4.071428571428571 11.977272727272728  C 4.071428571428571 12.081912878787877  4.0378534226190474 12.172466856060602  3.970703125 12.248934659090908  C 3.9035528273809526 12.325402462121213  3.824032738095238 12.363636363636363  3.732142857142857 12.363636363636363  C 3.633184523809524 12.363636363636363  3.551897321428571 12.327414772727272  3.48828125 12.254971590909092  L 0.4347098214285714 8.777698863636363  C 0.37109375 8.705255681818182  0.33928571428571425 8.612689393939393  0.33928571428571425 8.5  C 0.33928571428571425 8.387310606060606  0.37109375 8.294744318181818  0.4347098214285714 8.222301136363637  L 3.48828125 4.74502840909091  C 3.551897321428571 4.672585227272728  3.633184523809524 4.636363636363636  3.732142857142857 4.636363636363636  C 3.824032738095238 4.636363636363636  3.9035528273809526 4.674597537878787  3.970703125 4.75106534090909  Z " stroke-width="0" stroke-dasharray="0" stroke="rgba(255, 255, 255, 0)" fill="none" transform="matrix(1 0 0 1 216 73 )" class="stroke" mask="url(#Clip22)" />
    <path d="M 18.899274553571427 14.023792613636363  C 18.966424851190478 14.100260416666666  19 14.190814393939393  19 14.295454545454547  L 19 16.613636363636363  C 19 16.718276515151516  18.966424851190478 16.808830492424242  18.899274553571427 16.885298295454547  C 18.832124255952383 16.961766098484848  18.75260416666667 17  18.660714285714285 17  L 0.33928571428571425 17  C 0.24739583333333334 17  0.16787574404761904 16.961766098484848  0.10072544642857144 16.885298295454547  C 0.03357514880952381 16.808830492424242  0 16.718276515151516  0 16.613636363636363  L 0 14.295454545454547  C 0 14.190814393939393  0.03357514880952381 14.100260416666666  0.10072544642857144 14.023792613636363  C 0.16787574404761904 13.947324810606062  0.24739583333333334 13.909090909090908  0.33928571428571425 14  L 18.660714285714285 14  C 18.75260416666667 13.909090909090908  18.832124255952383 13.947324810606062  18.899274553571427 14.023792613636363  Z " stroke-width="0" stroke-dasharray="0" stroke="rgba(255, 255, 255, 0)" fill="none" transform="matrix(1 0 0 1 216 73 )" class="stroke" mask="url(#Clip22)" />
    <path d="M 18.899274553571427 9.387428977272728  C 18.966424851190478 9.46389678030303  19 9.554450757575758  19 9.659090909090908  L 19 11.977272727272728  C 19 12.081912878787877  18.966424851190478 12.172466856060602  18.899274553571427 12.248934659090908  C 18.832124255952383 12.325402462121213  18.75260416666667 12.363636363636363  18.660714285714285 12.363636363636363  L 7.125 12.363636363636363  C 7.0331101190476195 12.363636363636363  6.953590029761905 12.325402462121213  6.886439732142858 12.248934659090908  C 6.81928943452381 12.172466856060602  6.785714285714286 12.081912878787877  6.785714285714286 11.977272727272728  L 6.785714285714286 9.659090909090908  C 6.785714285714286 9.554450757575758  6.81928943452381 9.46389678030303  6.886439732142858 9.387428977272728  C 6.953590029761905 9.310961174242422  7.0331101190476195 9.272727272727272  7.125 9  L 18.660714285714285 9  C 18.75260416666667 9.272727272727272  18.832124255952383 9.310961174242422  18.899274553571427 9.387428977272728  Z " stroke-width="0" stroke-dasharray="0" stroke="rgba(255, 255, 255, 0)" fill="none" transform="matrix(1 0 0 1 216 73 )" class="stroke" mask="url(#Clip22)" />
    <path d="M 18.899274553571427 4.75106534090909  C 18.966424851190478 4.827533143939394  19 4.918087121212119  19 5.022727272727272  L 19 7.34090909090909  C 19 7.445549242424242  18.966424851190478 7.536103219696969  18.899274553571427 7.612571022727272  C 18.832124255952383 7.689038825757575  18.75260416666667 7.727272727272728  18.660714285714285 8  L 7.125 8  C 7.0331101190476195 7.727272727272728  6.953590029761905 7.689038825757575  6.886439732142858 7.612571022727272  C 6.81928943452381 7.536103219696969  6.785714285714286 7.445549242424242  6.785714285714286 7.34090909090909  L 6.785714285714286 5.022727272727272  C 6.785714285714286 4.918087121212119  6.81928943452381 4.827533143939394  6.886439732142858 4.75106534090909  C 6.953590029761905 4.674597537878787  7.0331101190476195 4.636363636363636  7.125 4.636363636363636  L 18.660714285714285 4.636363636363636  C 18.75260416666667 4.636363636363636  18.832124255952383 4.674597537878787  18.899274553571427 4.75106534090909  Z " stroke-width="0" stroke-dasharray="0" stroke="rgba(255, 255, 255, 0)" fill="none" transform="matrix(1 0 0 1 216 73 )" class="stroke" mask="url(#Clip22)" />
    <path d="M 18.899274553571427 0.11470170454545403  C 18.966424851190478 0.19116950757575735  19 0.2817234848484834  19 0.386363636363636  L 19 2.704545454545454  C 19 2.8091856060606046  18.966424851190478 2.899739583333331  18.899274553571427 2.976207386363636  C 18.832124255952383 3.0526751893939394  18.75260416666667 3.09090909090909  18.660714285714285 3  L 0.33928571428571425 3  C 0.24739583333333334 3.09090909090909  0.16787574404761904 3.0526751893939394  0.10072544642857144 2.976207386363636  C 0.03357514880952381 2.899739583333331  0 2.8091856060606046  0 2.704545454545454  L 0 0.386363636363636  C 0 0.2817234848484834  0.03357514880952381 0.19116950757575735  0.10072544642857144 0.11470170454545403  C 0.16787574404761904 0.03823390151514883  0.24739583333333334 0  0.33928571428571425 0  L 18.660714285714285 0  C 18.75260416666667 0  18.832124255952383 0.03823390151514883  18.899274553571427 0.11470170454545403  Z " stroke-width="0" stroke-dasharray="0" stroke="rgba(255, 255, 255, 0)" fill="none" transform="matrix(1 0 0 1 216 73 )" class="stroke" mask="url(#Clip22)" />
  </g>
</svg>