<?xml version="1.0" encoding="utf-8"?>
<svg version="1.1" xmlns:xlink="http://www.w3.org/1999/xlink" width="26px" height="19px" xmlns="http://www.w3.org/2000/svg">
  <defs>
    <pattern id="BGPattern" patternUnits="userSpaceOnUse" alignment="0 0" imageRepeat="None" />
    <mask fill="white" id="Clip23">
      <path d="M 17.197916666666668 11.119318181818182  C 17.288194444444446 11.011363636363637  17.333333333333332 10.90340909090909  17.333333333333332 10.795454545454545  C 17.333333333333332 10.669507575757574  17.292708333333334 10.566051136363637  17.211458333333333 10.485085227272727  C 17.130208333333332 10.404119318181818  17.026388888888892 10.363636363636363  16.900000000000002 10.363636363636363  L 13.866666666666667 10.363636363636363  L 13.866666666666667 5.613636363636363  C 13.866666666666667 5.496685606060604  13.823784722222223 5.395478219696969  13.738020833333335 5.310014204545453  C 13.652256944444447 5.224550189393938  13.550694444444447 5.181818181818182  13.433333333333335 5.181818181818182  L 10.833333333333334 5.181818181818182  C 10.715972222222224 5.181818181818182  10.614409722222224 5.224550189393938  10.528645833333334 5.310014204545453  C 10.442881944444444 5.395478219696969  10.4 5.496685606060604  10.4 5.613636363636363  L 10.4 10.363636363636363  L 7.366666666666666 10.363636363636363  C 7.249305555555556 10.363636363636363  7.147743055555556 10.40636837121212  7.061979166666666 10.491832386363637  C 6.976215277777778 10.57729640151515  6.933333333333334 10.678503787878787  6.933333333333334 10.795454545454545  C 6.933333333333334 10.921401515151514  6.973958333333334 11.024857954545455  7.055208333333334 11.105823863636363  L 11.821875 15.855823863636363  C 11.903125000000001 15.936789772727272  12.006944444444445 15.977272727272728  12.133333333333333 15.977272727272728  C 12.259722222222223 15.977272727272728  12.363541666666666 15.936789772727272  12.444791666666667 15.855823863636363  L 17.197916666666668 11.119318181818182  Z M 24.869270833333335 10.599786931818182  C 25.62309027777778 11.53989109848485  26.000000000000007 12.612689393939391  26 13.818181818181818  C 26.000000000000007 15.248579545454545  25.492187500000004 16.46981534090909  24.4765625 17.481889204545457  C 23.460937500000004 18.49396306818182  22.23541666666667 19  20.8 19  L 6.066666666666666 19  C 4.396527777777777 19  2.9678819444444446 18.408499053030305  1.780729166666667 17.22549715909091  C 0.5935763888888889 16.042495265151512  0 14.618844696969699  0 12.954545454545455  C 0 11.785037878787875  0.3159722222222222 10.705492424242426  0.9479166666666667 9.71590909090909  C 1.5798611111111112 8.726325757575754  2.428472222222222 7.984138257575754  3.49375 7.489346590909091  C 3.475694444444444 7.2194602272727275  3.466666666666667 7.026041666666666  3.466666666666667 6.909090909090909  C 3.466666666666667 5.001893939393938  4.14375 3.3735795454545463  5.497916666666667 2.024147727272728  C 6.852083333333334 0.6747159090909093  8.486111111111112 0  10.4 0  C 11.808333333333335 0  13.097048611111113 0.39133522727272785  14.266145833333333 1.1740056818181814  C 15.435243055555556 1.9566761363636371  16.28611111111111 2.995738636363637  16.818749999999998 4.291193181818182  C 17.459722222222222 3.733428030303029  18.209027777777777 3.4545454545454537  19.066666666666666 3.4545454545454537  C 20.023611111111112 3.4545454545454537  20.840625 3.791903409090909  21.517708333333335 4.466619318181818  C 22.194791666666667 5.1413352272727275  22.533333333333335 5.955492424242423  22.533333333333335 6.909090909090909  C 22.533333333333335 7.5928030303030285  22.34826388888889 8.213541666666666  21.978125000000002 8.771306818181818  C 23.151736111111113 9.050189393939394  24.11545138888889 9.659682765151514  24.869270833333335 10.599786931818182  Z " fill-rule="evenodd" />
    </mask>
  </defs>
  <g transform="matrix(1 0 0 1 -1216 -21 )">
    <path d="M 17.197916666666668 11.119318181818182  C 17.288194444444446 11.011363636363637  17.333333333333332 10.90340909090909  17.333333333333332 10.795454545454545  C 17.333333333333332 10.669507575757574  17.292708333333334 10.566051136363637  17.211458333333333 10.485085227272727  C 17.130208333333332 10.404119318181818  17.026388888888892 10.363636363636363  16.900000000000002 10.363636363636363  L 13.866666666666667 10.363636363636363  L 13.866666666666667 5.613636363636363  C 13.866666666666667 5.496685606060604  13.823784722222223 5.395478219696969  13.738020833333335 5.310014204545453  C 13.652256944444447 5.224550189393938  13.550694444444447 5.181818181818182  13.433333333333335 5.181818181818182  L 10.833333333333334 5.181818181818182  C 10.715972222222224 5.181818181818182  10.614409722222224 5.224550189393938  10.528645833333334 5.310014204545453  C 10.442881944444444 5.395478219696969  10.4 5.496685606060604  10.4 5.613636363636363  L 10.4 10.363636363636363  L 7.366666666666666 10.363636363636363  C 7.249305555555556 10.363636363636363  7.147743055555556 10.40636837121212  7.061979166666666 10.491832386363637  C 6.976215277777778 10.57729640151515  6.933333333333334 10.678503787878787  6.933333333333334 10.795454545454545  C 6.933333333333334 10.921401515151514  6.973958333333334 11.024857954545455  7.055208333333334 11.105823863636363  L 11.821875 15.855823863636363  C 11.903125000000001 15.936789772727272  12.006944444444445 15.977272727272728  12.133333333333333 15.977272727272728  C 12.259722222222223 15.977272727272728  12.363541666666666 15.936789772727272  12.444791666666667 15.855823863636363  L 17.197916666666668 11.119318181818182  Z M 24.869270833333335 10.599786931818182  C 25.62309027777778 11.53989109848485  26.000000000000007 12.612689393939391  26 13.818181818181818  C 26.000000000000007 15.248579545454545  25.492187500000004 16.46981534090909  24.4765625 17.481889204545457  C 23.460937500000004 18.49396306818182  22.23541666666667 19  20.8 19  L 6.066666666666666 19  C 4.396527777777777 19  2.9678819444444446 18.408499053030305  1.780729166666667 17.22549715909091  C 0.5935763888888889 16.042495265151512  0 14.618844696969699  0 12.954545454545455  C 0 11.785037878787875  0.3159722222222222 10.705492424242426  0.9479166666666667 9.71590909090909  C 1.5798611111111112 8.726325757575754  2.428472222222222 7.984138257575754  3.49375 7.489346590909091  C 3.475694444444444 7.2194602272727275  3.466666666666667 7.026041666666666  3.466666666666667 6.909090909090909  C 3.466666666666667 5.001893939393938  4.14375 3.3735795454545463  5.497916666666667 2.024147727272728  C 6.852083333333334 0.6747159090909093  8.486111111111112 0  10.4 0  C 11.808333333333335 0  13.097048611111113 0.39133522727272785  14.266145833333333 1.1740056818181814  C 15.435243055555556 1.9566761363636371  16.28611111111111 2.995738636363637  16.818749999999998 4.291193181818182  C 17.459722222222222 3.733428030303029  18.209027777777777 3.4545454545454537  19.066666666666666 3.4545454545454537  C 20.023611111111112 3.4545454545454537  20.840625 3.791903409090909  21.517708333333335 4.466619318181818  C 22.194791666666667 5.1413352272727275  22.533333333333335 5.955492424242423  22.533333333333335 6.909090909090909  C 22.533333333333335 7.5928030303030285  22.34826388888889 8.213541666666666  21.978125000000002 8.771306818181818  C 23.151736111111113 9.050189393939394  24.11545138888889 9.659682765151514  24.869270833333335 10.599786931818182  Z " fill-rule="nonzero" fill="rgba(170, 170, 170, 1)" stroke="none" transform="matrix(1 0 0 1 1216 21 )" class="fill" />
    <path d="M 17.197916666666668 11.119318181818182  C 17.288194444444446 11.011363636363637  17.333333333333332 10.90340909090909  17.333333333333332 10.795454545454545  C 17.333333333333332 10.669507575757574  17.292708333333334 10.566051136363637  17.211458333333333 10.485085227272727  C 17.130208333333332 10.404119318181818  17.026388888888892 10.363636363636363  16.900000000000002 10.363636363636363  L 13.866666666666667 10.363636363636363  L 13.866666666666667 5.613636363636363  C 13.866666666666667 5.496685606060604  13.823784722222223 5.395478219696969  13.738020833333335 5.310014204545453  C 13.652256944444447 5.224550189393938  13.550694444444447 5.181818181818182  13.433333333333335 5.181818181818182  L 10.833333333333334 5.181818181818182  C 10.715972222222224 5.181818181818182  10.614409722222224 5.224550189393938  10.528645833333334 5.310014204545453  C 10.442881944444444 5.395478219696969  10.4 5.496685606060604  10.4 5.613636363636363  L 10.4 10.363636363636363  L 7.366666666666666 10.363636363636363  C 7.249305555555556 10.363636363636363  7.147743055555556 10.40636837121212  7.061979166666666 10.491832386363637  C 6.976215277777778 10.57729640151515  6.933333333333334 10.678503787878787  6.933333333333334 10.795454545454545  C 6.933333333333334 10.921401515151514  6.973958333333334 11.024857954545455  7.055208333333334 11.105823863636363  L 11.821875 15.855823863636363  C 11.903125000000001 15.936789772727272  12.006944444444445 15.977272727272728  12.133333333333333 15.977272727272728  C 12.259722222222223 15.977272727272728  12.363541666666666 15.936789772727272  12.444791666666667 15.855823863636363  L 17.197916666666668 11.119318181818182  Z " stroke-width="0" stroke-dasharray="0" stroke="rgba(255, 255, 255, 0)" fill="none" transform="matrix(1 0 0 1 1216 21 )" class="stroke" mask="url(#Clip23)" />
    <path d="M 24.869270833333335 10.599786931818182  C 25.62309027777778 11.53989109848485  26.000000000000007 12.612689393939391  26 13.818181818181818  C 26.000000000000007 15.248579545454545  25.492187500000004 16.46981534090909  24.4765625 17.481889204545457  C 23.460937500000004 18.49396306818182  22.23541666666667 19  20.8 19  L 6.066666666666666 19  C 4.396527777777777 19  2.9678819444444446 18.408499053030305  1.780729166666667 17.22549715909091  C 0.5935763888888889 16.042495265151512  0 14.618844696969699  0 12.954545454545455  C 0 11.785037878787875  0.3159722222222222 10.705492424242426  0.9479166666666667 9.71590909090909  C 1.5798611111111112 8.726325757575754  2.428472222222222 7.984138257575754  3.49375 7.489346590909091  C 3.475694444444444 7.2194602272727275  3.466666666666667 7.026041666666666  3.466666666666667 6.909090909090909  C 3.466666666666667 5.001893939393938  4.14375 3.3735795454545463  5.497916666666667 2.024147727272728  C 6.852083333333334 0.6747159090909093  8.486111111111112 0  10.4 0  C 11.808333333333335 0  13.097048611111113 0.39133522727272785  14.266145833333333 1.1740056818181814  C 15.435243055555556 1.9566761363636371  16.28611111111111 2.995738636363637  16.818749999999998 4.291193181818182  C 17.459722222222222 3.733428030303029  18.209027777777777 3.4545454545454537  19.066666666666666 3.4545454545454537  C 20.023611111111112 3.4545454545454537  20.840625 3.791903409090909  21.517708333333335 4.466619318181818  C 22.194791666666667 5.1413352272727275  22.533333333333335 5.955492424242423  22.533333333333335 6.909090909090909  C 22.533333333333335 7.5928030303030285  22.34826388888889 8.213541666666666  21.978125000000002 8.771306818181818  C 23.151736111111113 9.050189393939394  24.11545138888889 9.659682765151514  24.869270833333335 10.599786931818182  Z " stroke-width="0" stroke-dasharray="0" stroke="rgba(255, 255, 255, 0)" fill="none" transform="matrix(1 0 0 1 1216 21 )" class="stroke" mask="url(#Clip23)" />
  </g>
</svg>