<?xml version="1.0" encoding="utf-8"?>
<svg version="1.1" xmlns:xlink="http://www.w3.org/1999/xlink" width="12px" height="9px" xmlns="http://www.w3.org/2000/svg">
  <defs>
    <pattern id="BGPattern" patternUnits="userSpaceOnUse" alignment="0 0" imageRepeat="None" />
    <mask fill="white" id="Clip24">
      <path d="M 11.936383928571429 5.849330357142857  C 11.978794642857144 5.891741071428571  12 5.941964285714286  12 6.000000000000001  L 12 7.285714285714286  C 12 7.343750000000001  11.978794642857144 7.393973214285714  11.936383928571429 7.436383928571429  C 11.893973214285715 7.478794642857142  11.843750000000002 7.5  11.785714285714285 7.5  L 2.571428571428571 7.5  L 2.571428571428571 8.785714285714285  C 2.571428571428571 8.84375  2.5502232142857144 8.893973214285715  2.5078125 8.936383928571429  C 2.4654017857142856 8.978794642857142  2.4151785714285716 9  2.357142857142857 9  C 2.303571428571429 9  2.25 8.977678571428571  2.196428571428571 8.933035714285715  L 0.06026785714285715 6.790178571428571  C 0.020089285714285712 6.75  0 6.700892857142856  0 6.642857142857143  C 0 6.5803571428571415  0.020089285714285712 6.529017857142858  0.06026785714285715 6.488839285714285  L 2.203125 4.345982142857143  C 2.243303571428571 4.305803571428571  2.294642857142857 4.285714285714286  2.357142857142857 4.285714285714286  C 2.4151785714285716 4.285714285714286  2.4654017857142856 4.306919642857142  2.5078125 4.349330357142858  C 2.5502232142857144 4.391741071428571  2.571428571428571 4.441964285714285  2.571428571428571 4.5  L 2.571428571428571 5.785714285714285  L 11.785714285714285 5.785714285714285  C 11.843750000000002 5.785714285714285  11.893973214285715 5.806919642857143  11.936383928571429 5.849330357142857  Z M 11.939732142857142 2.2031249999999996  C 11.979910714285715 2.243303571428571  12 2.2946428571428568  12 2.3571428571428568  C 12 2.4196428571428568  11.979910714285715 2.4709821428571423  11.939732142857142 2.511160714285714  L 9.796875 4.654017857142857  C 9.756696428571429 4.694196428571429  9.705357142857144 4.714285714285714  9.642857142857142 4.714285714285714  C 9.58482142857143 4.714285714285714  9.534598214285715 4.693080357142858  9.4921875 4.650669642857142  C 9.449776785714286 4.608258928571428  9.428571428571429 4.558035714285714  9.428571428571429 4.5  L 9.428571428571429 3.214285714285714  L 0.21428571428571427 3.214285714285714  C 0.15625 3.214285714285714  0.10602678571428571 3.1930803571428577  0.06361607142857142 3.150669642857143  C 0.021205357142857144 3.1082589285714284  0 3.0580357142857144  0 3.0000000000000004  L 0 1.7142857142857142  C 0 1.6562499999999991  0.021205357142857144 1.6060267857142851  0.06361607142857142 1.5636160714285716  C 0.10602678571428571 1.5212053571428559  0.15625 1.4999999999999996  0.21428571428571427 1.4999999999999996  L 9.428571428571429 1.4999999999999996  L 9.428571428571429 0.21428571428571452  C 9.428571428571429 0.15178571428571375  9.448660714285715 0.10044642857142871  9.488839285714285 0.06026785714285743  C 9.529017857142858 0.020089285714286143  9.580357142857142 0  9.642857142857142 0  C 9.696428571428571 0  9.75 0.022321428571428492  9.803571428571429 0.06696428571428548  L 11.939732142857142 2.2031249999999996  Z " fill-rule="evenodd" />
    </mask>
  </defs>
  <g transform="matrix(1 0 0 1 -1336 -77 )">
    <path d="M 11.936383928571429 5.849330357142857  C 11.978794642857144 5.891741071428571  12 5.941964285714286  12 6.000000000000001  L 12 7.285714285714286  C 12 7.343750000000001  11.978794642857144 7.393973214285714  11.936383928571429 7.436383928571429  C 11.893973214285715 7.478794642857142  11.843750000000002 7.5  11.785714285714285 7.5  L 2.571428571428571 7.5  L 2.571428571428571 8.785714285714285  C 2.571428571428571 8.84375  2.5502232142857144 8.893973214285715  2.5078125 8.936383928571429  C 2.4654017857142856 8.978794642857142  2.4151785714285716 9  2.357142857142857 9  C 2.303571428571429 9  2.25 8.977678571428571  2.196428571428571 8.933035714285715  L 0.06026785714285715 6.790178571428571  C 0.020089285714285712 6.75  0 6.700892857142856  0 6.642857142857143  C 0 6.5803571428571415  0.020089285714285712 6.529017857142858  0.06026785714285715 6.488839285714285  L 2.203125 4.345982142857143  C 2.243303571428571 4.305803571428571  2.294642857142857 4.285714285714286  2.357142857142857 4.285714285714286  C 2.4151785714285716 4.285714285714286  2.4654017857142856 4.306919642857142  2.5078125 4.349330357142858  C 2.5502232142857144 4.391741071428571  2.571428571428571 4.441964285714285  2.571428571428571 4.5  L 2.571428571428571 5.785714285714285  L 11.785714285714285 5.785714285714285  C 11.843750000000002 5.785714285714285  11.893973214285715 5.806919642857143  11.936383928571429 5.849330357142857  Z M 11.939732142857142 2.2031249999999996  C 11.979910714285715 2.243303571428571  12 2.2946428571428568  12 2.3571428571428568  C 12 2.4196428571428568  11.979910714285715 2.4709821428571423  11.939732142857142 2.511160714285714  L 9.796875 4.654017857142857  C 9.756696428571429 4.694196428571429  9.705357142857144 4.714285714285714  9.642857142857142 4.714285714285714  C 9.58482142857143 4.714285714285714  9.534598214285715 4.693080357142858  9.4921875 4.650669642857142  C 9.449776785714286 4.608258928571428  9.428571428571429 4.558035714285714  9.428571428571429 4.5  L 9.428571428571429 3.214285714285714  L 0.21428571428571427 3.214285714285714  C 0.15625 3.214285714285714  0.10602678571428571 3.1930803571428577  0.06361607142857142 3.150669642857143  C 0.021205357142857144 3.1082589285714284  0 3.0580357142857144  0 3.0000000000000004  L 0 1.7142857142857142  C 0 1.6562499999999991  0.021205357142857144 1.6060267857142851  0.06361607142857142 1.5636160714285716  C 0.10602678571428571 1.5212053571428559  0.15625 1.4999999999999996  0.21428571428571427 1.4999999999999996  L 9.428571428571429 1.4999999999999996  L 9.428571428571429 0.21428571428571452  C 9.428571428571429 0.15178571428571375  9.448660714285715 0.10044642857142871  9.488839285714285 0.06026785714285743  C 9.529017857142858 0.020089285714286143  9.580357142857142 0  9.642857142857142 0  C 9.696428571428571 0  9.75 0.022321428571428492  9.803571428571429 0.06696428571428548  L 11.939732142857142 2.2031249999999996  Z " fill-rule="nonzero" fill="rgba(64, 158, 255, 1)" stroke="none" transform="matrix(1 0 0 1 1336 77 )" class="fill" />
    <path d="M 11.936383928571429 5.849330357142857  C 11.978794642857144 5.891741071428571  12 5.941964285714286  12 6.000000000000001  L 12 7.285714285714286  C 12 7.343750000000001  11.978794642857144 7.393973214285714  11.936383928571429 7.436383928571429  C 11.893973214285715 7.478794642857142  11.843750000000002 7.5  11.785714285714285 7.5  L 2.571428571428571 7.5  L 2.571428571428571 8.785714285714285  C 2.571428571428571 8.84375  2.5502232142857144 8.893973214285715  2.5078125 8.936383928571429  C 2.4654017857142856 8.978794642857142  2.4151785714285716 9  2.357142857142857 9  C 2.303571428571429 9  2.25 8.977678571428571  2.196428571428571 8.933035714285715  L 0.06026785714285715 6.790178571428571  C 0.020089285714285712 6.75  0 6.700892857142856  0 6.642857142857143  C 0 6.5803571428571415  0.020089285714285712 6.529017857142858  0.06026785714285715 6.488839285714285  L 2.203125 4.345982142857143  C 2.243303571428571 4.305803571428571  2.294642857142857 4.285714285714286  2.357142857142857 4.285714285714286  C 2.4151785714285716 4.285714285714286  2.4654017857142856 4.306919642857142  2.5078125 4.349330357142858  C 2.5502232142857144 4.391741071428571  2.571428571428571 4.441964285714285  2.571428571428571 4.5  L 2.571428571428571 5.785714285714285  L 11.785714285714285 5.785714285714285  C 11.843750000000002 5.785714285714285  11.893973214285715 5.806919642857143  11.936383928571429 5.849330357142857  Z " stroke-width="0" stroke-dasharray="0" stroke="rgba(255, 255, 255, 0)" fill="none" transform="matrix(1 0 0 1 1336 77 )" class="stroke" mask="url(#Clip24)" />
    <path d="M 11.939732142857142 2.2031249999999996  C 11.979910714285715 2.243303571428571  12 2.2946428571428568  12 2.3571428571428568  C 12 2.4196428571428568  11.979910714285715 2.4709821428571423  11.939732142857142 2.511160714285714  L 9.796875 4.654017857142857  C 9.756696428571429 4.694196428571429  9.705357142857144 4.714285714285714  9.642857142857142 4.714285714285714  C 9.58482142857143 4.714285714285714  9.534598214285715 4.693080357142858  9.4921875 4.650669642857142  C 9.449776785714286 4.608258928571428  9.428571428571429 4.558035714285714  9.428571428571429 4.5  L 9.428571428571429 3.214285714285714  L 0.21428571428571427 3.214285714285714  C 0.15625 3.214285714285714  0.10602678571428571 3.1930803571428577  0.06361607142857142 3.150669642857143  C 0.021205357142857144 3.1082589285714284  0 3.0580357142857144  0 3.0000000000000004  L 0 1.7142857142857142  C 0 1.6562499999999991  0.021205357142857144 1.6060267857142851  0.06361607142857142 1.5636160714285716  C 0.10602678571428571 1.5212053571428559  0.15625 1.4999999999999996  0.21428571428571427 1.4999999999999996  L 9.428571428571429 1.4999999999999996  L 9.428571428571429 0.21428571428571452  C 9.428571428571429 0.15178571428571375  9.448660714285715 0.10044642857142871  9.488839285714285 0.06026785714285743  C 9.529017857142858 0.020089285714286143  9.580357142857142 0  9.642857142857142 0  C 9.696428571428571 0  9.75 0.022321428571428492  9.803571428571429 0.06696428571428548  L 11.939732142857142 2.2031249999999996  Z " stroke-width="0" stroke-dasharray="0" stroke="rgba(255, 255, 255, 0)" fill="none" transform="matrix(1 0 0 1 1336 77 )" class="stroke" mask="url(#Clip24)" />
  </g>
</svg>