<?xml version="1.0" encoding="utf-8"?>
<svg version="1.1" xmlns:xlink="http://www.w3.org/1999/xlink" width="10px" height="15px" xmlns="http://www.w3.org/2000/svg">
  <defs>
    <pattern id="BGPattern" patternUnits="userSpaceOnUse" alignment="0 0" imageRepeat="None" />
    <mask fill="white" id="Clip25">
      <path d="M 6.767578125 6.767578125  C 7.255859375 6.279296874999999  7.5 5.690104166666667  7.5 5.000000000000001  C 7.5 4.309895833333332  7.255859375 3.720703125  6.767578125 3.2324218749999996  C 6.279296875 2.7441406250000004  5.690104166666668 2.4999999999999996  5 2.4999999999999996  C 4.309895833333334 2.4999999999999996  3.720703125 2.7441406250000004  3.232421875 3.2324218749999996  C 2.744140625 3.720703125  2.5 4.309895833333332  2.5 5.000000000000001  C 2.5 5.690104166666667  2.744140625 6.279296874999999  3.232421875 6.767578125  C 3.720703125 7.255859375000001  4.309895833333334 7.5  5 7.5  C 5.690104166666668 7.5  6.279296875 7.255859375000001  6.767578125 6.767578125  Z M 8.53515625 1.46484375  C 9.51171875 2.4414062499999996  10 3.6197916666666647  10 5.000000000000001  C 10 5.709635416666666  9.892578125 6.292317708333333  9.677734375 6.748046874999999  L 6.123046875 14.306640625  C 6.018880208333334 14.521484375  5.8642578125 14.690755208333332  5.6591796875 14.814453125  C 5.4541015625 14.938151041666668  5.234375 15  5 15  C 4.765625 15  4.5458984375 14.938151041666668  4.3408203125 14.814453125  C 4.1357421875 14.690755208333332  3.984375 14.521484375  3.88671875 14.306640625  L 0.322265625 6.748046874999999  C 0.107421875 6.292317708333333  0 5.709635416666666  0 5.000000000000001  C 0 3.6197916666666647  0.48828125 2.4414062499999996  1.46484375 1.46484375  C 2.4414062500000004 0.48828125000000056  3.619791666666667 0  5 0  C 6.380208333333334 0  7.55859375 0.48828125000000056  8.53515625 1.46484375  Z " fill-rule="evenodd" />
    </mask>
  </defs>
  <g transform="matrix(1 0 0 1 -1270 -74 )">
    <path d="M 6.767578125 6.767578125  C 7.255859375 6.279296874999999  7.5 5.690104166666667  7.5 5.000000000000001  C 7.5 4.309895833333332  7.255859375 3.720703125  6.767578125 3.2324218749999996  C 6.279296875 2.7441406250000004  5.690104166666668 2.4999999999999996  5 2.4999999999999996  C 4.309895833333334 2.4999999999999996  3.720703125 2.7441406250000004  3.232421875 3.2324218749999996  C 2.744140625 3.720703125  2.5 4.309895833333332  2.5 5.000000000000001  C 2.5 5.690104166666667  2.744140625 6.279296874999999  3.232421875 6.767578125  C 3.720703125 7.255859375000001  4.309895833333334 7.5  5 7.5  C 5.690104166666668 7.5  6.279296875 7.255859375000001  6.767578125 6.767578125  Z M 8.53515625 1.46484375  C 9.51171875 2.4414062499999996  10 3.6197916666666647  10 5.000000000000001  C 10 5.709635416666666  9.892578125 6.292317708333333  9.677734375 6.748046874999999  L 6.123046875 14.306640625  C 6.018880208333334 14.521484375  5.8642578125 14.690755208333332  5.6591796875 14.814453125  C 5.4541015625 14.938151041666668  5.234375 15  5 15  C 4.765625 15  4.5458984375 14.938151041666668  4.3408203125 14.814453125  C 4.1357421875 14.690755208333332  3.984375 14.521484375  3.88671875 14.306640625  L 0.322265625 6.748046874999999  C 0.107421875 6.292317708333333  0 5.709635416666666  0 5.000000000000001  C 0 3.6197916666666647  0.48828125 2.4414062499999996  1.46484375 1.46484375  C 2.4414062500000004 0.48828125000000056  3.619791666666667 0  5 0  C 6.380208333333334 0  7.55859375 0.48828125000000056  8.53515625 1.46484375  Z " fill-rule="nonzero" fill="rgba(170, 170, 170, 1)" stroke="none" transform="matrix(1 0 0 1 1270 74 )" class="fill" />
    <path d="M 6.767578125 6.767578125  C 7.255859375 6.279296874999999  7.5 5.690104166666667  7.5 5.000000000000001  C 7.5 4.309895833333332  7.255859375 3.720703125  6.767578125 3.2324218749999996  C 6.279296875 2.7441406250000004  5.690104166666668 2.4999999999999996  5 2.4999999999999996  C 4.309895833333334 2.4999999999999996  3.720703125 2.7441406250000004  3.232421875 3.2324218749999996  C 2.744140625 3.720703125  2.5 4.309895833333332  2.5 5.000000000000001  C 2.5 5.690104166666667  2.744140625 6.279296874999999  3.232421875 6.767578125  C 3.720703125 7.255859375000001  4.309895833333334 7.5  5 7.5  C 5.690104166666668 7.5  6.279296875 7.255859375000001  6.767578125 6.767578125  Z " stroke-width="0" stroke-dasharray="0" stroke="rgba(255, 255, 255, 0)" fill="none" transform="matrix(1 0 0 1 1270 74 )" class="stroke" mask="url(#Clip25)" />
    <path d="M 8.53515625 1.46484375  C 9.51171875 2.4414062499999996  10 3.6197916666666647  10 5.000000000000001  C 10 5.709635416666666  9.892578125 6.292317708333333  9.677734375 6.748046874999999  L 6.123046875 14.306640625  C 6.018880208333334 14.521484375  5.8642578125 14.690755208333332  5.6591796875 14.814453125  C 5.4541015625 14.938151041666668  5.234375 15  5 15  C 4.765625 15  4.5458984375 14.938151041666668  4.3408203125 14.814453125  C 4.1357421875 14.690755208333332  3.984375 14.521484375  3.88671875 14.306640625  L 0.322265625 6.748046874999999  C 0.107421875 6.292317708333333  0 5.709635416666666  0 5.000000000000001  C 0 3.6197916666666647  0.48828125 2.4414062499999996  1.46484375 1.46484375  C 2.4414062500000004 0.48828125000000056  3.619791666666667 0  5 0  C 6.380208333333334 0  7.55859375 0.48828125000000056  8.53515625 1.46484375  Z " stroke-width="0" stroke-dasharray="0" stroke="rgba(255, 255, 255, 0)" fill="none" transform="matrix(1 0 0 1 1270 74 )" class="stroke" mask="url(#Clip25)" />
  </g>
</svg>