<?xml version="1.0" encoding="utf-8"?>
<svg version="1.1" xmlns:xlink="http://www.w3.org/1999/xlink" width="77px" height="32px" xmlns="http://www.w3.org/2000/svg">
  <defs>
    <pattern id="BGPattern" patternUnits="userSpaceOnUse" alignment="0 0" imageRepeat="None" />
    <mask fill="white" id="Clip31">
      <path d="M 0 30  L 0 2  C 0 0.8799999999999955  0.5554098360656426 0  1.2622950819672132 0  L 27.238999137187214 0  L 75.73770491803279 0  C 76.44459016393436 0  77 0.8799999999999955  77 2  L 77 30  C 77 31.120000000000005  76.44459016393436 32  75.73770491803279 32  L 1.2622950819672132 32  C 0.5554098360656426 32  0 31.120000000000005  0 30  Z " fill-rule="evenodd" />
    </mask>
  </defs>
  <g transform="matrix(1 0 0 1 -1672 -367 )">
    <path d="M 0 30  L 0 2  C 0 0.8799999999999955  0.5554098360656426 0  1.2622950819672132 0  L 27.238999137187214 0  L 75.73770491803279 0  C 76.44459016393436 0  77 0.8799999999999955  77 2  L 77 30  C 77 31.120000000000005  76.44459016393436 32  75.73770491803279 32  L 1.2622950819672132 32  C 0.5554098360656426 32  0 31.120000000000005  0 30  Z " fill-rule="nonzero" fill="rgba(56, 118, 250, 1)" stroke="none" transform="matrix(1 0 0 1 1672 367 )" class="fill" />
    <path d="M 0 30  L 0 2  C 0 0.8799999999999955  0.5554098360656426 0  1.2622950819672132 0  L 27.238999137187214 0  L 75.73770491803279 0  C 76.44459016393436 0  77 0.8799999999999955  77 2  L 77 30  C 77 31.120000000000005  76.44459016393436 32  75.73770491803279 32  L 1.2622950819672132 32  C 0.5554098360656426 32  0 31.120000000000005  0 30  Z " stroke-width="0" stroke-dasharray="0" stroke="rgba(121, 121, 121, 1)" fill="none" transform="matrix(1 0 0 1 1672 367 )" class="stroke" mask="url(#Clip31)" />
  </g>
</svg>