<?xml version="1.0" encoding="utf-8"?>
<svg version="1.1" xmlns:xlink="http://www.w3.org/1999/xlink" width="40px" height="40px" xmlns="http://www.w3.org/2000/svg">
  <defs>
    <pattern id="BGPattern" patternUnits="userSpaceOnUse" alignment="0 0" imageRepeat="None" />
    <mask fill="white" id="Clip36">
      <path d="M 0 15  C 0 6.600000000000023  6.599999999999909 0  15 0  C 23.40000000000009 0  30 6.600000000000023  30 15  C 30 23.399999999999977  23.40000000000009 30  15 30  C 6.693340716565672 30  0.14690052627065597 23.545863325155324  0.0024382452756981365 15.27934879162649  C 0.0008149437335305265 15.186459175749405  0 15.093340716565647  0 15  Z " fill-rule="evenodd" />
    </mask>
  </defs>
  <g transform="matrix(1 0 0 1 -1090 -548 )">
    <path d="M 0 15  C 0 6.600000000000023  6.599999999999909 0  15 0  C 23.40000000000009 0  30 6.600000000000023  30 15  C 30 23.399999999999977  23.40000000000009 30  15 30  C 6.693340716565672 30  0.14690052627065597 23.545863325155324  0.0024382452756981365 15.27934879162649  C 0.0008149437335305265 15.186459175749405  0 15.093340716565647  0 15  Z " fill-rule="nonzero" fill="rgba(245, 154, 35, 1)" stroke="none" transform="matrix(1 0 0 1 1095 553 )" class="fill" />
    <path d="M 0 15  C 0 6.600000000000023  6.599999999999909 0  15 0  C 23.40000000000009 0  30 6.600000000000023  30 15  C 30 23.399999999999977  23.40000000000009 30  15 30  C 6.693340716565672 30  0.14690052627065597 23.545863325155324  0.0024382452756981365 15.27934879162649  C 0.0008149437335305265 15.186459175749405  0 15.093340716565647  0 15  Z " stroke-width="0" stroke-dasharray="0" stroke="rgba(121, 121, 121, 1)" fill="none" transform="matrix(1 0 0 1 1095 553 )" class="stroke" mask="url(#Clip36)" />
  </g>
  <style>svg { filter: drop-shadow(0px 0px 2.5px rgba(0, 0, 0, 0.34901960784313724)); }</style>
</svg>