<?xml version="1.0" encoding="utf-8"?>
<svg version="1.1" xmlns:xlink="http://www.w3.org/1999/xlink" width="16px" height="15px" xmlns="http://www.w3.org/2000/svg">
  <defs>
    <pattern id="BGPattern" patternUnits="userSpaceOnUse" alignment="0 0" imageRepeat="None" />
    <mask fill="white" id="Clip26">
      <path d="M 16 2.3537234042553123  C 16 1.2765957446808756  15.2521246458924 0.45877659574468765  13.869688385269182 0.45877659574468765  L 12.804532577903682 0.45877659574468765  C 12.509915014164381 0.45877659574468765  12.169971671388158 0.6183510638297918  12.169971671388158 0.8776595744681046  C 12.169971671388158 1.1369680851063961  12.509915014164381 1.3962765957446877  12.804532577903682 1.3962765957446877  L 13.869688385269182 1.3962765957446877  C 14.504249291784799 1.3962765957446877  14.9348441926345 1.775265957446834  15 2.333776595744709  L 15 13.124999999999979  C 14.9348441926345 13.683510638297854  14.504249291784799 14.062499999999979  13.869688385269182 14  L 2.402266288951796 14  C 1.76770538243627 14.062499999999979  1.0651558073654996 13.683510638297854  1 13.124999999999979  L 1 2.333776595744709  C 1.0651558073654996 1.775265957446834  1.4957507082152914 1.3962765957446877  2.130311614730817 1.3962765957446877  L 3.4674220963172955 1.3962765957446877  C 3.7620396600565984 1.3962765957446877  3.875354107648673 1.1369680851063961  3.875354107648673 0.8776595744681046  C 3.875354107648673 0.6183510638297918  3.7620396600565984 0.45877659574468765  3.4674220963172955 0.45877659574468765  L 2.130311614730817 0.45877659574468765  C 0.6345609065155259 0.45877659574468765  0 1.2765957446808756  0 2.3537234042553123  L 0 13.025265957446791  C 0 14.182180851063812  0.793201133144521 15  2.2436260623228916 15  L 13.756373937677107 15  C 15.206798866855479 15  16 14.321808510638292  16 13.025265957446791  L 16 2.3537234042553123  Z M 4.011331444759253 4.208776595744688  C 3.7167138810197686 4.208776595744688  3.4674220963172955 4.4281914893617085  3.4674220963172955 4.6875  C 3.4674220963172955 4.9468085106382915  3.7167138810197686 5.166223404255334  4.011331444759253 5.166223404255334  L 12.011331444759254 5.166223404255334  C 12.305949008498555 5.166223404255334  12.555240793201119 4.9468085106382915  12.555240793201119 4.6875  C 12.555240793201119 4.4281914893617085  12.305949008498555 4.208776595744688  12.011331444759254 4.208776595744688  L 4.011331444759253 4.208776595744688  Z M 12.555240793201119 7.280585106382958  C 12.532577903682704 7.001329787234042  12.283286118980232 6.801861702127667  11.988668555240746 6.801861702127667  L 4.011331444759253 6.801861702127667  C 3.7167138810197686 6.801861702127667  3.4674220963172955 7.021276595744688  3.4674220963172955 7.280585106382958  C 3.4674220963172955 7.539893617021271  3.7167138810197686 7.759308510638313  4.011331444759253 7.759308510638313  L 12.011331444759254 7.759308510638313  C 12.305949008498555 7.759308510638313  12.555240793201119 7.539893617021271  12.555240793201119 7.280585106382958  Z M 12.555240793201119 10.09308510638298  C 12.532577903682704 9.813829787234042  12.283286118980232 9.614361702127667  11.988668555240746 9.614361702127667  L 4.011331444759253 9.614361702127667  C 3.7167138810197686 9.614361702127667  3.4674220963172955 9.833776595744666  3.4674220963172955 10.09308510638298  C 3.4674220963172955 10.35239361702127  3.7167138810197686 10.571808510638292  4.011331444759253 10.571808510638292  L 12.011331444759254 10.571808510638292  C 12.305949008498555 10.571808510638292  12.555240793201119 10.35239361702127  12.555240793201119 10.09308510638298  Z M 5.348441926345549 0.8178191489361879  C 5.348441926345549 1.2566489361702082  5.711048158640279 1.6356382978723545  6.164305949008576 1.6356382978723545  L 9.881019830028345 1.6356382978723545  C 10.311614730878228 1.6356382978723545  10.674220963172775 1.2566489361702082  10.674220963172775 0.8178191489361879  C 10.674220963172775 0.37898936170214625  10.311614730878228 0  9.85835694050993 0  L 6.164305949008576 0  C 5.711048158640279 0  5.348441926345549 0.37898936170214625  5.348441926345549 0.8178191489361879  Z " fill-rule="evenodd" />
    </mask>
  </defs>
  <g transform="matrix(1 0 0 1 -19 -168 )">
    <path d="M 16 2.3537234042553123  C 16 1.2765957446808756  15.2521246458924 0.45877659574468765  13.869688385269182 0.45877659574468765  L 12.804532577903682 0.45877659574468765  C 12.509915014164381 0.45877659574468765  12.169971671388158 0.6183510638297918  12.169971671388158 0.8776595744681046  C 12.169971671388158 1.1369680851063961  12.509915014164381 1.3962765957446877  12.804532577903682 1.3962765957446877  L 13.869688385269182 1.3962765957446877  C 14.504249291784799 1.3962765957446877  14.9348441926345 1.775265957446834  15 2.333776595744709  L 15 13.124999999999979  C 14.9348441926345 13.683510638297854  14.504249291784799 14.062499999999979  13.869688385269182 14  L 2.402266288951796 14  C 1.76770538243627 14.062499999999979  1.0651558073654996 13.683510638297854  1 13.124999999999979  L 1 2.333776595744709  C 1.0651558073654996 1.775265957446834  1.4957507082152914 1.3962765957446877  2.130311614730817 1.3962765957446877  L 3.4674220963172955 1.3962765957446877  C 3.7620396600565984 1.3962765957446877  3.875354107648673 1.1369680851063961  3.875354107648673 0.8776595744681046  C 3.875354107648673 0.6183510638297918  3.7620396600565984 0.45877659574468765  3.4674220963172955 0.45877659574468765  L 2.130311614730817 0.45877659574468765  C 0.6345609065155259 0.45877659574468765  0 1.2765957446808756  0 2.3537234042553123  L 0 13.025265957446791  C 0 14.182180851063812  0.793201133144521 15  2.2436260623228916 15  L 13.756373937677107 15  C 15.206798866855479 15  16 14.321808510638292  16 13.025265957446791  L 16 2.3537234042553123  Z M 4.011331444759253 4.208776595744688  C 3.7167138810197686 4.208776595744688  3.4674220963172955 4.4281914893617085  3.4674220963172955 4.6875  C 3.4674220963172955 4.9468085106382915  3.7167138810197686 5.166223404255334  4.011331444759253 5.166223404255334  L 12.011331444759254 5.166223404255334  C 12.305949008498555 5.166223404255334  12.555240793201119 4.9468085106382915  12.555240793201119 4.6875  C 12.555240793201119 4.4281914893617085  12.305949008498555 4.208776595744688  12.011331444759254 4.208776595744688  L 4.011331444759253 4.208776595744688  Z M 12.555240793201119 7.280585106382958  C 12.532577903682704 7.001329787234042  12.283286118980232 6.801861702127667  11.988668555240746 6.801861702127667  L 4.011331444759253 6.801861702127667  C 3.7167138810197686 6.801861702127667  3.4674220963172955 7.021276595744688  3.4674220963172955 7.280585106382958  C 3.4674220963172955 7.539893617021271  3.7167138810197686 7.759308510638313  4.011331444759253 7.759308510638313  L 12.011331444759254 7.759308510638313  C 12.305949008498555 7.759308510638313  12.555240793201119 7.539893617021271  12.555240793201119 7.280585106382958  Z M 12.555240793201119 10.09308510638298  C 12.532577903682704 9.813829787234042  12.283286118980232 9.614361702127667  11.988668555240746 9.614361702127667  L 4.011331444759253 9.614361702127667  C 3.7167138810197686 9.614361702127667  3.4674220963172955 9.833776595744666  3.4674220963172955 10.09308510638298  C 3.4674220963172955 10.35239361702127  3.7167138810197686 10.571808510638292  4.011331444759253 10.571808510638292  L 12.011331444759254 10.571808510638292  C 12.305949008498555 10.571808510638292  12.555240793201119 10.35239361702127  12.555240793201119 10.09308510638298  Z M 5.348441926345549 0.8178191489361879  C 5.348441926345549 1.2566489361702082  5.711048158640279 1.6356382978723545  6.164305949008576 1.6356382978723545  L 9.881019830028345 1.6356382978723545  C 10.311614730878228 1.6356382978723545  10.674220963172775 1.2566489361702082  10.674220963172775 0.8178191489361879  C 10.674220963172775 0.37898936170214625  10.311614730878228 0  9.85835694050993 0  L 6.164305949008576 0  C 5.711048158640279 0  5.348441926345549 0.37898936170214625  5.348441926345549 0.8178191489361879  Z " fill-rule="nonzero" fill="rgba(85, 85, 85, 1)" stroke="none" transform="matrix(1 0 0 1 19 168 )" class="fill" />
    <path d="M 16 2.3537234042553123  C 16 1.2765957446808756  15.2521246458924 0.45877659574468765  13.869688385269182 0.45877659574468765  L 12.804532577903682 0.45877659574468765  C 12.509915014164381 0.45877659574468765  12.169971671388158 0.6183510638297918  12.169971671388158 0.8776595744681046  C 12.169971671388158 1.1369680851063961  12.509915014164381 1.3962765957446877  12.804532577903682 1.3962765957446877  L 13.869688385269182 1.3962765957446877  C 14.504249291784799 1.3962765957446877  14.9348441926345 1.775265957446834  15 2.333776595744709  L 15 13.124999999999979  C 14.9348441926345 13.683510638297854  14.504249291784799 14.062499999999979  13.869688385269182 14  L 2.402266288951796 14  C 1.76770538243627 14.062499999999979  1.0651558073654996 13.683510638297854  1 13.124999999999979  L 1 2.333776595744709  C 1.0651558073654996 1.775265957446834  1.4957507082152914 1.3962765957446877  2.130311614730817 1.3962765957446877  L 3.4674220963172955 1.3962765957446877  C 3.7620396600565984 1.3962765957446877  3.875354107648673 1.1369680851063961  3.875354107648673 0.8776595744681046  C 3.875354107648673 0.6183510638297918  3.7620396600565984 0.45877659574468765  3.4674220963172955 0.45877659574468765  L 2.130311614730817 0.45877659574468765  C 0.6345609065155259 0.45877659574468765  0 1.2765957446808756  0 2.3537234042553123  L 0 13.025265957446791  C 0 14.182180851063812  0.793201133144521 15  2.2436260623228916 15  L 13.756373937677107 15  C 15.206798866855479 15  16 14.321808510638292  16 13.025265957446791  L 16 2.3537234042553123  Z " stroke-width="0" stroke-dasharray="0" stroke="rgba(255, 255, 255, 0)" fill="none" transform="matrix(1 0 0 1 19 168 )" class="stroke" mask="url(#Clip26)" />
    <path d="M 4.011331444759253 4.208776595744688  C 3.7167138810197686 4.208776595744688  3.4674220963172955 4.4281914893617085  3.4674220963172955 4.6875  C 3.4674220963172955 4.9468085106382915  3.7167138810197686 5.166223404255334  4.011331444759253 5.166223404255334  L 12.011331444759254 5.166223404255334  C 12.305949008498555 5.166223404255334  12.555240793201119 4.9468085106382915  12.555240793201119 4.6875  C 12.555240793201119 4.4281914893617085  12.305949008498555 4.208776595744688  12.011331444759254 4.208776595744688  L 4.011331444759253 4.208776595744688  Z " stroke-width="0" stroke-dasharray="0" stroke="rgba(255, 255, 255, 0)" fill="none" transform="matrix(1 0 0 1 19 168 )" class="stroke" mask="url(#Clip26)" />
    <path d="M 12.555240793201119 7.280585106382958  C 12.532577903682704 7.001329787234042  12.283286118980232 6.801861702127667  11.988668555240746 6.801861702127667  L 4.011331444759253 6.801861702127667  C 3.7167138810197686 6.801861702127667  3.4674220963172955 7.021276595744688  3.4674220963172955 7.280585106382958  C 3.4674220963172955 7.539893617021271  3.7167138810197686 7.759308510638313  4.011331444759253 7.759308510638313  L 12.011331444759254 7.759308510638313  C 12.305949008498555 7.759308510638313  12.555240793201119 7.539893617021271  12.555240793201119 7.280585106382958  Z " stroke-width="0" stroke-dasharray="0" stroke="rgba(255, 255, 255, 0)" fill="none" transform="matrix(1 0 0 1 19 168 )" class="stroke" mask="url(#Clip26)" />
    <path d="M 12.555240793201119 10.09308510638298  C 12.532577903682704 9.813829787234042  12.283286118980232 9.614361702127667  11.988668555240746 9.614361702127667  L 4.011331444759253 9.614361702127667  C 3.7167138810197686 9.614361702127667  3.4674220963172955 9.833776595744666  3.4674220963172955 10.09308510638298  C 3.4674220963172955 10.35239361702127  3.7167138810197686 10.571808510638292  4.011331444759253 10.571808510638292  L 12.011331444759254 10.571808510638292  C 12.305949008498555 10.571808510638292  12.555240793201119 10.35239361702127  12.555240793201119 10.09308510638298  Z " stroke-width="0" stroke-dasharray="0" stroke="rgba(255, 255, 255, 0)" fill="none" transform="matrix(1 0 0 1 19 168 )" class="stroke" mask="url(#Clip26)" />
    <path d="M 5.348441926345549 0.8178191489361879  C 5.348441926345549 1.2566489361702082  5.711048158640279 1.6356382978723545  6.164305949008576 1.6356382978723545  L 9.881019830028345 1.6356382978723545  C 10.311614730878228 1.6356382978723545  10.674220963172775 1.2566489361702082  10.674220963172775 0.8178191489361879  C 10.674220963172775 0.37898936170214625  10.311614730878228 0  9.85835694050993 0  L 6.164305949008576 0  C 5.711048158640279 0  5.348441926345549 0.37898936170214625  5.348441926345549 0.8178191489361879  Z " stroke-width="0" stroke-dasharray="0" stroke="rgba(255, 255, 255, 0)" fill="none" transform="matrix(1 0 0 1 19 168 )" class="stroke" mask="url(#Clip26)" />
  </g>
</svg>