<?xml version="1.0" encoding="utf-8"?>
<svg version="1.1" xmlns:xlink="http://www.w3.org/1999/xlink" width="6px" height="10px" xmlns="http://www.w3.org/2000/svg">
  <defs>
    <pattern id="BGPattern" patternUnits="userSpaceOnUse" alignment="0 0" imageRepeat="None" />
    <mask fill="white" id="Clip27">
      <path d="M 1.7931543453365602 5.033764461524555  L 6 0.8872076338788588  L 5.099936378674131 0  L 0.8932943122534678 4.146556827645696  L 0.8911566357043132 4.144700534813069  L 0 5.02287755491119  L 0.0021376765492070837 5.024984698126616  L 0 5.0268911610359055  L 0.900063621325869 5.914098794914764  L 0.9019977096322468 5.912192332005532  L 5.0490393179793465 10  L 5.94019595368366 9.121371449212859  L 1.7931543453365602 5.033764461524555  Z " fill-rule="evenodd" />
    </mask>
  </defs>
  <g transform="matrix(1 0 0 1 -2 2 )">
    <path d="M 1.7931543453365602 5.033764461524555  L 6 0.8872076338788588  L 5.099936378674131 0  L 0.8932943122534678 4.146556827645696  L 0.8911566357043132 4.144700534813069  L 0 5.02287755491119  L 0.0021376765492070837 5.024984698126616  L 0 5.0268911610359055  L 0.900063621325869 5.914098794914764  L 0.9019977096322468 5.912192332005532  L 5.0490393179793465 10  L 5.94019595368366 9.121371449212859  L 1.7931543453365602 5.033764461524555  Z " fill-rule="nonzero" fill="rgba(85, 85, 85, 1)" stroke="none" transform="matrix(1 0 0 1 2 -2 )" class="fill" />
    <path d="M 1.7931543453365602 5.033764461524555  L 6 0.8872076338788588  L 5.099936378674131 0  L 0.8932943122534678 4.146556827645696  L 0.8911566357043132 4.144700534813069  L 0 5.02287755491119  L 0.0021376765492070837 5.024984698126616  L 0 5.0268911610359055  L 0.900063621325869 5.914098794914764  L 0.9019977096322468 5.912192332005532  L 5.0490393179793465 10  L 5.94019595368366 9.121371449212859  L 1.7931543453365602 5.033764461524555  Z " stroke-width="0" stroke-dasharray="0" stroke="rgba(255, 255, 255, 0)" fill="none" transform="matrix(1 0 0 1 2 -2 )" class="stroke" mask="url(#Clip27)" />
  </g>
</svg>