<?xml version="1.0" encoding="utf-8"?>
<svg version="1.1" xmlns:xlink="http://www.w3.org/1999/xlink" width="27px" height="27px" xmlns="http://www.w3.org/2000/svg">
  <defs>
    <pattern id="BGPattern" patternUnits="userSpaceOnUse" alignment="0 0" imageRepeat="None" />
    <mask fill="white" id="Clip32">
      <path d="M 13 0  C 20.179727993750003 0  26 5.820301743749999  26 13  C 26 20.17969825625  20.17969825625 26  13 26  C 5.820301743749999 26  0 20.17969825625  0 13  C 0 5.820301743749999  5.820272006249998 0  13 0  Z M 23.949116343750003 12.970267537500002  C 23.949116343750003 6.923226293749998  19.0470115875 2.0211511937499993  13 2.0211511937499993  C 6.952958756250002 2.0211511937499993  2.050883656249998 6.923226293749998  2.050883656249998 12.970267537500002  C 2.050883656249998 19.0173088625  6.952958756250002 23.9193839625  13 23.9193839625  C 19.047041243749998 23.9193839625  23.949116343750003 19.0173088625  23.949116343750003 12.970267537500002  Z M 16.156747587500004 6.72857339375  C 16.95267283125 7.416056212499998  17.3608517875 8.358931668750001  17.3608517875 9.537501675000001  C 17.3608517875 10.499977718749998  17.09553210625 11.3053240625  16.60572411875 11.9338752  C 16.421999668749997 12.149936581249998  15.850596449999998 12.660689275000001  14.870980474999998 13.466003118749999  C 14.503599175 13.7802949375  14.217880625000001 14.114252343749998  14.034189975000002 14.4678103375  C 13.809701668749998 14.860667006249999  13.707640050000002 15.29278976875  13.707640050000002 15.783876875  L 13.707640050000002 16.25  L 11.523886075 16.25  L 11.523886075 15.783876875  C 11.523886075 15.057095300000002  11.64638028125 14.4285116625  11.911699962500002 13.917791550000002  C 12.19741843125 13.367837762500002  12.97294496875 12.5624588375  14.23827949375 11.482119350000001  L 14.585261924999998 11.108928268750002  C 14.952575706249998 10.657107337500001  15.136300156249998 10.185685900000003  15.136300156249998 9.67496570625  C 15.136300156249998 8.987482806249998  14.93217691875 8.457129606249998  14.544430550000001 8.064240437499999  C 14.136217793750003 7.671416349999998  13.564814575000002 7.474987975  12.830051975000002 7.474987975  C 11.911699962500002 7.474987975  11.238201324999997 7.749981118750002  10.830022368749999 8.2999999875  C 10.617185718750003 8.5731295  10.43665845625 9.137396368749997  10.288440581249999 9.99280059375  L 8.125449231250002 9.954021999999998  C 8.25382699375 8.694167624999999  8.685953412500002 7.691038550000001  9.421828568749998 6.944634774999999  C 10.2789841375 6.100022256250002  11.46265583125 5.6875  12.952546181250003 5.6875  C 14.279110868750001 5.6875  15.340355874999998 6.021424906249998  16.156747587500004 6.72857339375  Z " fill-rule="evenodd" />
    </mask>
  </defs>
  <g transform="matrix(1 0 0 1 -1463 -292 )">
    <path d="M 13 0  C 20.179727993750003 0  26 5.820301743749999  26 13  C 26 20.17969825625  20.17969825625 26  13 26  C 5.820301743749999 26  0 20.17969825625  0 13  C 0 5.820301743749999  5.820272006249998 0  13 0  Z M 23.949116343750003 12.970267537500002  C 23.949116343750003 6.923226293749998  19.0470115875 2.0211511937499993  13 2.0211511937499993  C 6.952958756250002 2.0211511937499993  2.050883656249998 6.923226293749998  2.050883656249998 12.970267537500002  C 2.050883656249998 19.0173088625  6.952958756250002 23.9193839625  13 23.9193839625  C 19.047041243749998 23.9193839625  23.949116343750003 19.0173088625  23.949116343750003 12.970267537500002  Z M 16.156747587500004 6.72857339375  C 16.95267283125 7.416056212499998  17.3608517875 8.358931668750001  17.3608517875 9.537501675000001  C 17.3608517875 10.499977718749998  17.09553210625 11.3053240625  16.60572411875 11.9338752  C 16.421999668749997 12.149936581249998  15.850596449999998 12.660689275000001  14.870980474999998 13.466003118749999  C 14.503599175 13.7802949375  14.217880625000001 14.114252343749998  14.034189975000002 14.4678103375  C 13.809701668749998 14.860667006249999  13.707640050000002 15.29278976875  13.707640050000002 15.783876875  L 13.707640050000002 16.25  L 11.523886075 16.25  L 11.523886075 15.783876875  C 11.523886075 15.057095300000002  11.64638028125 14.4285116625  11.911699962500002 13.917791550000002  C 12.19741843125 13.367837762500002  12.97294496875 12.5624588375  14.23827949375 11.482119350000001  L 14.585261924999998 11.108928268750002  C 14.952575706249998 10.657107337500001  15.136300156249998 10.185685900000003  15.136300156249998 9.67496570625  C 15.136300156249998 8.987482806249998  14.93217691875 8.457129606249998  14.544430550000001 8.064240437499999  C 14.136217793750003 7.671416349999998  13.564814575000002 7.474987975  12.830051975000002 7.474987975  C 11.911699962500002 7.474987975  11.238201324999997 7.749981118750002  10.830022368749999 8.2999999875  C 10.617185718750003 8.5731295  10.43665845625 9.137396368749997  10.288440581249999 9.99280059375  L 8.125449231250002 9.954021999999998  C 8.25382699375 8.694167624999999  8.685953412500002 7.691038550000001  9.421828568749998 6.944634774999999  C 10.2789841375 6.100022256250002  11.46265583125 5.6875  12.952546181250003 5.6875  C 14.279110868750001 5.6875  15.340355874999998 6.021424906249998  16.156747587500004 6.72857339375  Z M 13.8125 20.3125  L 11.375 20.3125  L 11.375 17.875  L 13.8125 17.875  L 13.8125 20.3125  Z " fill-rule="nonzero" fill="rgba(255, 134, 60, 1)" stroke="none" transform="matrix(1 0 0 1 1463 292 )" class="fill" />
    <path d="M 13 0  C 20.179727993750003 0  26 5.820301743749999  26 13  C 26 20.17969825625  20.17969825625 26  13 26  C 5.820301743749999 26  0 20.17969825625  0 13  C 0 5.820301743749999  5.820272006249998 0  13 0  Z " stroke-width="0" stroke-dasharray="0" stroke="rgba(255, 255, 255, 0)" fill="none" transform="matrix(1 0 0 1 1463 292 )" class="stroke" mask="url(#Clip32)" />
    <path d="M 23.949116343750003 12.970267537500002  C 23.949116343750003 6.923226293749998  19.0470115875 2.0211511937499993  13 2.0211511937499993  C 6.952958756250002 2.0211511937499993  2.050883656249998 6.923226293749998  2.050883656249998 12.970267537500002  C 2.050883656249998 19.0173088625  6.952958756250002 23.9193839625  13 23.9193839625  C 19.047041243749998 23.9193839625  23.949116343750003 19.0173088625  23.949116343750003 12.970267537500002  Z " stroke-width="0" stroke-dasharray="0" stroke="rgba(255, 255, 255, 0)" fill="none" transform="matrix(1 0 0 1 1463 292 )" class="stroke" mask="url(#Clip32)" />
    <path d="M 16.156747587500004 6.72857339375  C 16.95267283125 7.416056212499998  17.3608517875 8.358931668750001  17.3608517875 9.537501675000001  C 17.3608517875 10.499977718749998  17.09553210625 11.3053240625  16.60572411875 11.9338752  C 16.421999668749997 12.149936581249998  15.850596449999998 12.660689275000001  14.870980474999998 13.466003118749999  C 14.503599175 13.7802949375  14.217880625000001 14.114252343749998  14.034189975000002 14.4678103375  C 13.809701668749998 14.860667006249999  13.707640050000002 15.29278976875  13.707640050000002 15.783876875  L 13.707640050000002 16.25  L 11.523886075 16.25  L 11.523886075 15.783876875  C 11.523886075 15.057095300000002  11.64638028125 14.4285116625  11.911699962500002 13.917791550000002  C 12.19741843125 13.367837762500002  12.97294496875 12.5624588375  14.23827949375 11.482119350000001  L 14.585261924999998 11.108928268750002  C 14.952575706249998 10.657107337500001  15.136300156249998 10.185685900000003  15.136300156249998 9.67496570625  C 15.136300156249998 8.987482806249998  14.93217691875 8.457129606249998  14.544430550000001 8.064240437499999  C 14.136217793750003 7.671416349999998  13.564814575000002 7.474987975  12.830051975000002 7.474987975  C 11.911699962500002 7.474987975  11.238201324999997 7.749981118750002  10.830022368749999 8.2999999875  C 10.617185718750003 8.5731295  10.43665845625 9.137396368749997  10.288440581249999 9.99280059375  L 8.125449231250002 9.954021999999998  C 8.25382699375 8.694167624999999  8.685953412500002 7.691038550000001  9.421828568749998 6.944634774999999  C 10.2789841375 6.100022256250002  11.46265583125 5.6875  12.952546181250003 5.6875  C 14.279110868750001 5.6875  15.340355874999998 6.021424906249998  16.156747587500004 6.72857339375  Z " stroke-width="0" stroke-dasharray="0" stroke="rgba(255, 255, 255, 0)" fill="none" transform="matrix(1 0 0 1 1463 292 )" class="stroke" mask="url(#Clip32)" />
    <path d="M 11.375 20.3125  L 11.375 17.875  L 13.8125 17.875  L 13.8125 20.3125  " stroke-width="0" stroke-dasharray="0" stroke="rgba(255, 255, 255, 0)" fill="none" transform="matrix(1 0 0 1 1463 292 )" class="stroke" />
  </g>
</svg>